<svg width="150" height="150" viewBox="0 0 150 150" fill="none" xmlns="http://www.w3.org/2000/svg">
<path d="M78 46.3983C76.0304 46.165 74.1697 45.8007 72.2407 45.3612C69.5055 44.738 65.4909 43.2851 62.6666 43.8797C57.6676 44.9322 54.6997 50.4553 52.4629 54.5094C50.0339 58.9119 48.2447 62.0997 48.0741 67.3057C47.876 73.3452 47.1013 79.7979 48.5185 85.7316C50.345 93.3793 54.2374 99.8366 60.8518 104.065C65.6653 107.142 71.6404 111.506 77.5185 112.25C80.5509 112.634 84.2247 112.707 87.2592 112.25C93.0404 111.381 97.7649 107.69 101.167 103.065C103.734 99.5747 103.903 95.4268 103.981 91.2501C104.102 84.7867 104.128 79.2782 101.37 73.2316C93.6908 56.3956 77.1113 47.6761 60 43.3983" stroke="black" stroke-width="3" stroke-linecap="round"/>
<path d="M73.3333 46.3983C75.4671 46.3983 77.9231 45.779 79.9629 45.1761C82.9896 44.2814 85.6596 42.6575 88.574 41.5094C90.0383 40.9325 91.5478 40.9119 93.074 40.6575C94.7052 40.3857 96.0796 40.4142 97.6666 40.7316C97.7547 40.7492 97.4803 40.7532 97.4073 40.8057C95.5993 42.1062 94.7379 44.95 94.1295 46.8798C92.7974 51.1052 92.3333 55.3369 92.3333 59.7316" stroke="black" stroke-width="3" stroke-linecap="round"/>
<path d="M78.3333 68.0649C79.4402 68.87 80.0781 69.9183 80.7962 71.0835C81.0996 71.5758 82.1066 74.1262 82.8703 74.3612C84.5645 74.8825 86.738 74.3755 88.5184 74.7316C91.2543 75.2788 91.8904 72.753 92.4073 70.3983C92.6767 69.171 93.6911 66.3607 93.2592 65.0649C93.0904 64.5587 91.301 64.7548 90.9999 64.7316" stroke="black" stroke-width="3" stroke-linecap="round"/>
<path d="M53.3333 71.3983C52.3777 73.3094 55.611 74.4222 56.5925 75.0279C58.5765 76.252 60.1005 77.5554 62.4444 78.0649C63.5244 78.2997 64.4296 78.7099 65.4629 79.0279C69.6934 80.3296 68.9999 73.2101 68.9999 70.7316" stroke="black" stroke-width="3" stroke-linecap="round"/>
<path d="M79.3333 90.7316C80.0414 93.5642 81.7893 96.5155 83.2221 99.0279C84.6118 101.465 86.4572 101.946 89.1666 101.269C90.5927 100.912 90.6281 99.7286 91.1481 98.602C91.4775 97.8882 92.3724 96.4756 92.6851 95.8983C93.7599 93.9141 93.978 92.1307 94.6666 90.0649" stroke="black" stroke-width="3" stroke-linecap="round"/>
<path d="M82.0001 96.7316C84.2816 100.258 82.2568 103.426 78.1482 102.583C76.3975 102.224 74.1484 102.381 72.5186 101.695C71.7073 101.353 71.1013 99.7732 70.8149 99.1761C69.5457 96.53 68.6377 93.8159 67.6667 91.0649" stroke="black" stroke-width="3" stroke-linecap="round"/>
<path d="M90.3333 85.3983C95.0724 81.4146 102.143 79.539 108.093 78.139C109.468 77.8154 110.709 77.3983 112.13 77.3983C112.764 77.3983 113.987 77.719 113.333 77.0649" stroke="black" stroke-width="3" stroke-linecap="round"/>
<path d="M99.6667 93.3983C109.599 93.3983 118.946 95.0848 128.667 97.0649" stroke="black" stroke-width="3" stroke-linecap="round"/>
<path d="M55 88.7316C49.6377 88.3486 44.3052 87.1548 39 86.3242C33.9096 85.5272 28.945 84.8111 24 83.3983" stroke="black" stroke-width="3" stroke-linecap="round"/>
<path d="M59.3333 99.3983C52.9774 99.3983 46.9095 98.7267 40.5925 98.102C35.7957 97.6275 30.9797 97.7258 26.3333 96.3983" stroke="black" stroke-width="3" stroke-linecap="round"/>
<path d="M57.0001 103.065C56.6715 104.238 56.835 105.525 56.9446 106.713C57.4029 111.685 58.2905 116.591 58.5742 121.583C58.6585 123.067 58.0402 125.971 60.2223 126.324C62.8034 126.742 66.6759 126.378 68.9631 125.028C72.3682 123.019 72.9149 118.897 72.9816 115.361C73.0036 114.194 73.8621 109.732 72.0001 109.732" stroke="black" stroke-width="3" stroke-linecap="round"/>
<path d="M87 111.398C86.8559 112.515 85.1721 120.435 86.5556 121.324C87.086 121.665 88.3721 121.364 88.963 121.472C91.5384 121.943 93.555 123.72 95.6296 125.176C96.5636 125.832 101.84 127.962 102 125.658C102.436 119.356 98.8925 112.789 96.6667 107.065" stroke="black" stroke-width="3" stroke-linecap="round"/>
<path d="M60 44.0649C62.4069 40.1537 62.4276 36.0216 62.6667 31.5279C62.84 28.2687 62.8917 27.3617 62.963 24.0834C62.9851 23.0651 62.9638 22.0458 63 21.0279C63.0463 19.7253 63.0709 19.4477 63.4444 20.8427C64.376 24.3219 64.896 27.9197 66.037 31.3427C67.5525 35.8892 69.5765 40.1134 71.6667 44.3983" stroke="black" stroke-width="3" stroke-linecap="round"/>
<path d="M62.3333 37.0649C64.0279 37.6812 65.5565 37.7316 67.3333 37.7316" stroke="black" stroke-width="3" stroke-linecap="round"/>
<path d="M62.3333 42.0649C65.0891 40.899 68.1373 40.2464 70.9999 39.3983" stroke="black" stroke-width="3" stroke-linecap="round"/>
<path d="M77 86.0649C77.8883 86.3143 78.7696 86.5323 79.6667 86.7316" stroke="black" stroke-width="3" stroke-linecap="round"/>
<path d="M77.3333 86.7316C79.3765 89.1463 80.5441 92.3109 82.0925 95.0464C82.7509 96.2095 82.6234 94.163 82.6666 93.7316" stroke="black" stroke-width="3" stroke-linecap="round"/>
<path d="M53.0001 48.3983C49.604 45.1809 44.4805 44.9847 40.2964 43.5094C38.7548 42.9658 35.6915 40.9416 34.0001 41.3983C32.1365 41.9014 32.9299 48.823 33.0556 50.2686C33.2677 52.7072 34.8977 55.4766 35.9445 57.5835C37.4461 60.6057 39.1351 63.3014 41.5927 65.6205C44.8226 68.6684 48.5538 70.9746 52.0001 73.7316" stroke="black" stroke-width="3" stroke-linecap="round"/>
</svg>
