<svg width="150" height="150" viewBox="0 0 150 150" fill="none" xmlns="http://www.w3.org/2000/svg">
<rect width="150" height="150" fill="#D9D9D9"/>
<path d="M55 88.7316C49.6377 88.3486 44.3052 87.1548 39 86.3242C33.9096 85.5272 28.945 84.8111 24 83.3983" stroke="black" stroke-width="3" stroke-linecap="round"/>
<path d="M87 111.398C86.8559 112.515 85.1721 120.435 86.5556 121.324C87.086 121.665 88.3721 121.364 88.963 121.472C91.5384 121.943 93.555 123.72 95.6296 125.176C96.5636 125.832 101.84 127.962 102 125.658C102.436 119.356 98.8925 112.789 96.6667 107.065" stroke="black" stroke-width="3" stroke-linecap="round"/>
<path d="M78 46.482C76.0304 46.2487 74.1697 45.8844 72.2407 45.4449C69.5055 44.8217 65.4909 43.3689 62.6666 43.9634C57.6676 45.0159 54.6997 50.539 52.4629 54.5931C50.0339 58.9957 48.2447 62.1834 48.0741 67.3894C47.876 73.4289 47.1013 79.8816 48.5185 85.8153C50.345 93.463 54.2374 99.9203 60.8518 104.149C65.6653 107.226 71.6404 111.59 77.5185 112.334C80.5509 112.718 84.2247 112.79 87.2592 112.334C93.0404 111.464 97.7649 107.774 101.167 103.149C103.734 99.6584 103.903 95.5105 103.981 91.3338C104.102 84.8704 104.128 79.3619 101.37 73.3153C93.6908 56.4793 77.1113 47.7598 60 43.482" stroke="black" stroke-width="3" stroke-linecap="round"/>
<path d="M73.3333 46.482C75.4671 46.482 77.9231 45.8627 79.9629 45.2598C82.9896 44.3651 85.6596 42.7412 88.574 41.5931C90.0383 41.0162 91.5478 40.9956 93.074 40.7412C94.7052 40.4694 96.0796 40.4979 97.6666 40.8153C97.7547 40.8329 97.4803 40.8369 97.4073 40.8894C95.5993 42.1899 94.7379 45.0337 94.1295 46.9635C92.7974 51.1889 92.3333 55.4206 92.3333 59.8153" stroke="black" stroke-width="3" stroke-linecap="round"/>
<path d="M78.3333 68.1486C79.4402 68.9537 80.0781 70.002 80.7962 71.1672C81.0996 71.6595 82.1066 74.21 82.8703 74.4449C84.5645 74.9662 86.738 74.4592 88.5184 74.8153C91.2543 75.3625 91.8904 72.8367 92.4073 70.482C92.6767 69.2547 93.6911 66.4444 93.2592 65.1486C93.0904 64.6424 91.301 64.8385 90.9999 64.8153" stroke="black" stroke-width="3" stroke-linecap="round"/>
<path d="M53.3333 71.482C52.3777 73.3931 55.611 74.506 56.5925 75.1116C58.5765 76.3357 60.1005 77.6391 62.4444 78.1486C63.5244 78.3834 64.4296 78.7937 65.4629 79.1116C69.6934 80.4133 68.9999 73.2938 68.9999 70.8153" stroke="black" stroke-width="3" stroke-linecap="round"/>
<path d="M79.3333 90.8153C80.0414 93.6479 81.7893 96.5993 83.2221 99.1116C84.6118 101.548 86.4572 102.03 89.1666 101.352C90.5927 100.996 90.6281 99.8123 91.1481 98.6857C91.4775 97.9719 92.3724 96.5593 92.6851 95.982C93.7599 93.9978 93.978 92.2144 94.6666 90.1487" stroke="black" stroke-width="3" stroke-linecap="round"/>
<path d="M82.0001 96.8153C84.2816 100.341 82.2568 103.51 78.1482 102.667C76.3975 102.308 74.1484 102.465 72.5186 101.778C71.7073 101.437 71.1013 99.8569 70.8149 99.2598C69.5457 96.6137 68.6377 93.8996 67.6667 91.1487" stroke="black" stroke-width="3" stroke-linecap="round"/>
<path d="M90.3333 85.482C95.0724 81.4984 102.143 79.6227 108.093 78.2227C109.468 77.8991 110.709 77.482 112.13 77.482C112.764 77.482 113.987 77.8028 113.333 77.1487" stroke="black" stroke-width="3" stroke-linecap="round"/>
<path d="M99.6667 93.482C109.599 93.482 118.946 95.1686 128.667 97.1486" stroke="black" stroke-width="3" stroke-linecap="round"/>
<path d="M55 88.8153C49.6377 88.4323 44.3052 87.2385 39 86.4079C33.9096 85.6109 28.945 84.8948 24 83.482" stroke="black" stroke-width="3" stroke-linecap="round"/>
<path d="M59.3333 99.482C52.9774 99.482 46.9095 98.8104 40.5925 98.1857C35.7957 97.7113 30.9797 97.8095 26.3333 96.482" stroke="black" stroke-width="3" stroke-linecap="round"/>
<path d="M57.0001 103.149C56.6715 104.322 56.835 105.609 56.9446 106.797C57.4029 111.768 58.2905 116.675 58.5742 121.667C58.6585 123.151 58.0402 126.054 60.2223 126.408C62.8034 126.826 66.6759 126.461 68.9631 125.112C72.3682 123.102 72.9149 118.981 72.9816 115.445C73.0036 114.278 73.8621 109.815 72.0001 109.815" stroke="black" stroke-width="3" stroke-linecap="round"/>
<path d="M60 44.1486C62.4069 40.2374 62.4276 36.1053 62.6667 31.6116C62.84 28.3524 62.8917 27.4455 62.963 24.1672C62.9851 23.1488 62.9638 22.1296 63 21.1116C63.0463 19.809 63.0709 19.5314 63.4444 20.9264C64.376 24.4056 64.896 28.0034 66.037 31.4264C67.5525 35.9729 69.5765 40.1971 71.6667 44.482" stroke="black" stroke-width="3" stroke-linecap="round"/>
<path d="M62.3333 37.1487C64.0279 37.7649 65.5565 37.8153 67.3333 37.8153" stroke="black" stroke-width="3" stroke-linecap="round"/>
<path d="M62.3333 42.1486C65.0891 40.9827 68.1373 40.3302 70.9999 39.482" stroke="black" stroke-width="3" stroke-linecap="round"/>
<path d="M77 86.1487C77.8883 86.398 78.7696 86.616 79.6667 86.8153" stroke="black" stroke-width="3" stroke-linecap="round"/>
<path d="M77.3333 86.8153C79.3765 89.23 80.5441 92.3946 82.0925 95.1301C82.7509 96.2932 82.6234 94.2467 82.6666 93.8153" stroke="black" stroke-width="3" stroke-linecap="round"/>
<path d="M53.0001 48.482C49.604 45.2646 44.4805 45.0684 40.2964 43.5931C38.7548 43.0495 35.6915 41.0253 34.0001 41.482C32.1365 41.9851 32.9299 48.9067 33.0556 50.3523C33.2677 52.7909 34.8977 55.5603 35.9445 57.6672C37.4461 60.6894 39.1351 63.3851 41.5927 65.7042C44.8226 68.7522 48.5538 71.0583 52.0001 73.8153" stroke="black" stroke-width="3" stroke-linecap="round"/>
<path d="M52.6667 70.6667C53.5618 69.7099 54.949 66.9033 56.2964 66.7037C58.7437 66.3411 61.5113 67.0706 63.7038 68.1111C65.1815 68.8124 65.7025 70.259 67.3334 70.6667" stroke="black" stroke-width="3" stroke-linecap="round"/>
<path d="M78.3333 67.3333C83.1817 67.2206 87.4029 64.6667 92.3333 64.6667" stroke="black" stroke-width="3" stroke-linecap="round"/>
<path d="M60.9999 67.6667C59.9056 71.1486 59.3333 73.6945 59.3333 77.3333" stroke="black" stroke-width="3" stroke-linecap="round"/>
<path d="M84.6667 67.6667C82.9088 68.6433 84.1836 74.2434 84.3334 75.6667" stroke="black" stroke-width="3" stroke-linecap="round"/>
<path d="M78.6667 104.333C79.315 103.815 79.5895 104.191 80.2038 104.519C81.8794 105.412 83.5386 106.467 85.2593 107.259C87.92 108.484 88.3835 105.17 89.3334 103.333" stroke="black" stroke-width="3" stroke-linecap="round"/>
</svg>
