<svg width="100" height="78" viewBox="0 0 100 78" fill="none" xmlns="http://www.w3.org/2000/svg">
<path d="M18.0496 28.3136C18.0496 10.1684 39.8185 2.2661 56.539 2.01762C68.9452 1.83325 70.8929 2.92078 76.824 13.7743C80.7544 20.9666 81.1928 33.4496 78.9788 41.2529C76.7408 49.1413 69.8878 54.5099 61.4431 56.4183C53.5421 58.2039 37.5046 59.1595 30.0869 56.1401C21.3391 52.5792 16.0063 31.4788 23.3995 24.557" stroke="black" stroke-width="3" stroke-linecap="round"/>
<path d="M31.5 40C31.9934 45.1818 48.7345 41.3418 54.2163 42.5413C59.698 43.7407 69.5 37.5 69.5 37.5" stroke="black" stroke-width="3" stroke-linecap="round"/>
<path d="M36.7742 23.3049C37.3382 28.0568 47.474 26.3202 47.474 21.4266C47.474 14.0805 36.7742 21.5345 36.7742 27.0615" stroke="black" stroke-width="3" stroke-linecap="round"/>
<path d="M55.4988 22.0527C58.2237 22.3078 61.6424 24.466 64.1923 22.6092C65.9965 21.2954 69.4867 18.0962 66.0499 16.4874C58.8095 13.098 47.7964 15.9204 51.4864 24.557" stroke="black" stroke-width="3" stroke-linecap="round"/>
<path d="M80 34.0001C90.6334 34.0001 98 37 98 48" stroke="black" stroke-width="3" stroke-linecap="round"/>
<path d="M18.0496 40.8355C7.4603 32.023 2 50.5776 2 57.114" stroke="black" stroke-width="3" stroke-linecap="round"/>
<path d="M35.5066 58C36.4084 61.0033 37.9944 71.1718 36.1383 74.0807C33.6027 78.0545 24.8944 75.2015 23 71.4629" stroke="black" stroke-width="3" stroke-linecap="round"/>
<path d="M68.8735 54.6096C68.8735 60.6851 68.8735 66.7605 68.8735 72.8359C68.8735 80.183 76.3004 68.5973 78.2358 65.8793" stroke="black" stroke-width="3" stroke-linecap="round"/>
</svg>
