<svg width="111" height="78" viewBox="0 0 111 78" fill="none" xmlns="http://www.w3.org/2000/svg">
<path d="M18.0497 28.3136C18.0497 10.1684 39.8185 2.2661 56.5391 2.01762C68.9452 1.83325 70.8929 2.92078 76.824 13.7743C80.7544 20.9666 81.1928 33.4496 78.9789 41.2529C76.7408 49.1413 69.8878 54.5099 61.4431 56.4183C53.5422 58.2039 37.5046 59.1595 30.0869 56.1401C21.3391 52.5792 16.0064 31.4788 23.3995 24.557" stroke="black" stroke-width="3" stroke-linecap="round"/>
<path d="M32.7618 37.079C33.2612 44.5596 48.6873 45.365 54.2357 47.0965C65.3338 50.56 64.8336 39.6155 70.211 33.3224" stroke="black" stroke-width="3" stroke-linecap="round"/>
<path d="M36.7742 23.3049C37.3382 28.0568 47.474 26.3202 47.474 21.4266C47.474 14.0805 36.7742 21.5345 36.7742 27.0615" stroke="black" stroke-width="3" stroke-linecap="round"/>
<path d="M55.4988 22.0527C58.2237 22.3078 61.6424 24.466 64.1924 22.6092C65.9965 21.2954 69.4867 18.0962 66.05 16.4874C58.8095 13.098 47.7965 15.9204 51.4864 24.557" stroke="black" stroke-width="3" stroke-linecap="round"/>
<path d="M79.5733 29.5658C86.3456 29.5658 92.948 28.798 92.948 20.8005" stroke="black" stroke-width="3" stroke-linecap="round"/>
<path d="M94.2855 23.3048C94.2855 13.7436 108.265 8.4624 108.998 20.8004C109.259 25.2051 104.011 25.8092 100.23 25.8092C96.4662 25.8092 91.7278 19.4384 94.2855 17.0439" stroke="black" stroke-width="3" stroke-linecap="round"/>
<path d="M91.6105 17.0439C91.6105 14.3258 88.5991 9.58101 92.948 8.4177C97.4418 7.21563 95.6229 15.889 95.6229 18.2961" stroke="black" stroke-width="3" stroke-linecap="round"/>
<path d="M18.0496 40.8355C7.4603 32.023 2 50.5776 2 57.114" stroke="black" stroke-width="3" stroke-linecap="round"/>
<path d="M38.1117 62.1227C39.1725 64.3574 41.0382 71.9237 38.8547 74.0881C35.872 77.045 25.628 74.9221 23.3995 72.1403" stroke="black" stroke-width="3" stroke-linecap="round"/>
<path d="M68.8735 54.6096C68.8735 60.6851 68.8735 66.7605 68.8735 72.8359C68.8735 80.183 76.3004 68.5973 78.2358 65.8793" stroke="black" stroke-width="3" stroke-linecap="round"/>
</svg>
