<svg width="79" height="88" viewBox="0 0 79 88" fill="none" xmlns="http://www.w3.org/2000/svg">
<path d="M11.1721 39.3136C11.1721 21.1684 32.941 13.2661 49.6615 13.0176C62.0677 12.8332 64.0154 13.9208 69.9465 24.7743C73.8769 31.9666 74.3153 44.4496 72.1013 52.2529C69.8633 60.1413 63.0103 65.5099 54.5656 67.4183C46.6646 69.2039 30.627 70.1595 23.2094 67.1401C14.4616 63.5792 9.12883 42.4788 16.522 35.557" stroke="black" stroke-width="3" stroke-linecap="round"/>
<path d="M23.6225 53.5C33.6225 47 40.5742 45.2685 46.1225 47C57.2206 50.4635 56.4115 49.1776 62.6225 53.5" stroke="black" stroke-width="3" stroke-linecap="round"/>
<path d="M29.8967 34.3049C30.4607 39.0568 40.5965 37.3202 40.5965 32.4266C40.5965 25.0805 29.8967 32.5345 29.8967 38.0615" stroke="black" stroke-width="3" stroke-linecap="round"/>
<path d="M48.6213 33.0527C51.3462 33.3078 54.7649 35.466 57.3148 33.6092C59.119 32.2954 62.6092 29.0962 59.1724 27.4874C51.932 24.098 40.9189 26.9204 44.6089 35.557" stroke="black" stroke-width="3" stroke-linecap="round"/>
<path d="M71.1225 40.9999C76.186 40.9999 86.6225 -13 51.6225 25" stroke="black" stroke-width="3" stroke-linecap="round"/>
<path d="M37.56 29.2108C36.8722 17.6203 24.4932 21.5788 22.9957 30.0275C24.2598 32.2122 26.6795 34.2196 28.7922 34.2196C32.5733 34.2196 37.8214 33.6155 37.56 29.2108Z" fill="black"/>
<path d="M22.8478 31.7152C22.8478 22.154 36.8279 16.8728 37.56 29.2108C37.8214 33.6155 32.5733 34.2196 28.7922 34.2196C25.0286 34.2196 20.2902 27.8488 22.8478 25.4543" stroke="black" stroke-width="3" stroke-linecap="round"/>
<path d="M11.1721 51.8355C-1.87751 49.0004 -5.37752 11.9998 30.6225 28" stroke="black" stroke-width="3" stroke-linecap="round"/>
<path d="M31.0558 69C31.7 71.8364 32.8328 81.44 31.507 84.1873C29.6958 87.9404 23.4756 85.2458 22.1225 81.715" stroke="black" stroke-width="3" stroke-linecap="round"/>
<path d="M59.1225 66C59.1225 70.7119 59.1225 75.4238 59.1225 80.1357C59.1225 85.8338 68.6418 76.8484 71.1225 74.7404" stroke="black" stroke-width="3" stroke-linecap="round"/>
<path d="M56.56 27.2108C55.8722 15.6203 43.4932 19.5788 41.9957 28.0275C43.2598 30.2122 45.6795 32.2196 47.7922 32.2196C51.5733 32.2196 56.8214 31.6155 56.56 27.2108Z" fill="black"/>
<path d="M41.8478 29.7152C41.8478 20.154 55.8279 14.8728 56.56 27.2108C56.8214 31.6155 51.5733 32.2196 47.7922 32.2196C44.0286 32.2196 39.2902 25.8488 41.8478 23.4543" stroke="black" stroke-width="3" stroke-linecap="round"/>
<path d="M26.6225 17.9999C26.6225 11.5 18.2892 6.99992 17.6225 8.49992" stroke="black"/>
<path d="M31.6225 17C30.8225 15.4 31.6225 8.5 26.6225 5" stroke="black"/>
<path d="M39.1225 14C38.3225 12.4 41.1225 7 34.1225 2" stroke="black"/>
<path d="M49.1225 13C48.3225 11.4 51.1225 6.5 44.1225 1" stroke="black"/>
</svg>
