<svg width="68" height="57" viewBox="0 0 68 57" fill="none" xmlns="http://www.w3.org/2000/svg">
<path d="M3.00001 20.8116C5.50864 15.1672 9.95965 10.9104 15.7222 8.31159C21.835 5.55484 40.6254 -2.22631 46.4445 4.97826C52.7927 12.838 56.8597 30.1099 49.3889 38.3671C46.2116 41.8789 44.2641 46.7123 39 46.8116C31.032 46.9619 26.5404 45.9571 19.5556 42.5894C11.3216 38.6194 8.99707 37.9048 4.55557 30.5894C1.02048 24.7669 2.2738 22.4009 6.00001 16.8116" stroke="black" stroke-width="3" stroke-linecap="round"/>
<path d="M15 16.8116C19.1743 16.8116 21 15.7309 21 20.3671C21 24.6197 17 32.2207 17 23.9227C17 20.6242 14.6072 13.8401 11.5 18.8116C7.20833 25.6783 13.9568 28.7771 19 32.8116" stroke="black" stroke-width="3" stroke-linecap="round"/>
<path d="M32 15.8116C32.1236 16.8 39.7683 19.6931 35.5556 22.5894C32.779 24.4983 28.1351 22.5954 30.5 18.8116C31.2985 17.534 37.2088 14.9624 38 17.5338C38.4245 18.9133 39.9804 23.8361 38.8889 25.2005C37.5678 26.8519 35 22.0096 35 20.8116" stroke="black" stroke-width="3" stroke-linecap="round"/>
<path d="M26 36.8116C29.0178 34.1291 29.7983 38.8013 33 37.2005C36.0617 35.6696 40 32.2188 40 28.8116" stroke="black" stroke-width="3" stroke-linecap="round"/>
<path d="M17 32.8116C23.2301 34.556 21 26.0879 21 21.8116" stroke="black" stroke-width="3" stroke-linecap="round"/>
<path d="M52 36.8116C57.0729 36.8116 66 46.4896 66 34.8116" stroke="black" stroke-width="3" stroke-linecap="round"/>
<path d="M33 48.8116C32.5913 59.0281 25.3663 55.0343 18 51.8116" stroke="black" stroke-width="3" stroke-linecap="round"/>
<path d="M51 13.8116C53.5664 13.2413 53.6041 10.4106 56 9.81158" stroke="black" stroke-width="3" stroke-linecap="round"/>
<path d="M2 39.8116H8" stroke="black" stroke-width="3" stroke-linecap="round"/>
</svg>
